<svg width="51" height="673" viewBox="0 0 51 673" fill="none" xmlns="http://www.w3.org/2000/svg">
<path d="M49.695 672.617H0.825958V658.851H22.232L0.825958 636.55V619.756L20.9242 640.749L49.695 619.549V636.069L29.3215 650.66L37.0992 658.851H49.695V672.617Z" fill="white" fill-opacity="0.1"/>
<path d="M49.695 594.467H29.0461L0.825958 620.348V603.76L18.8593 587.447L0.825958 571.134V554.822L29.0461 580.702H49.695V594.467Z" fill="white" fill-opacity="0.1"/>
<path d="M49.695 550.754H0.825958V536.644L28.2202 513.241V513.173H0.825958V500.37H49.695V510.901L18.171 537.883V537.951H49.695V550.754Z" fill="white" fill-opacity="0.1"/>
<path d="M50.521 467.631C50.521 471.899 50.108 475.868 49.2821 479.539C48.4102 483.21 46.9877 486.399 45.0146 489.106C42.9956 491.813 40.2883 493.901 36.8927 495.369L33.2447 483.049C34.8967 482.131 36.2503 481.053 37.3057 479.814C38.3152 478.529 39.0723 476.854 39.5771 474.789C40.0359 472.724 40.2654 470.063 40.2654 466.805C40.2654 462.813 39.8295 459.784 38.9576 457.72C38.0858 455.655 36.9615 454.622 35.585 454.622C34.5296 454.622 33.6348 455.127 32.9006 456.136C32.1664 457.146 31.6387 459.073 31.3175 461.918L29.6656 475.202C28.8855 481.351 27.3713 485.94 25.1228 488.968C22.8744 491.997 19.7541 493.511 15.762 493.511C12.2287 493.511 9.31495 492.456 7.02063 490.345C4.68042 488.234 2.93674 485.251 1.78957 481.397C0.596525 477.497 0 472.954 0 467.769C0 464.006 0.390035 460.427 1.17011 457.031C1.95018 453.59 3.28089 450.538 5.16223 447.877C7.04358 445.17 9.68205 443.036 13.0776 441.476L16.7256 453.246C14.156 454.622 12.4352 456.572 11.5634 459.096C10.6915 461.574 10.2556 464.832 10.2556 468.87C10.2556 472.266 10.6227 474.996 11.3569 477.061C12.0452 479.08 13.0547 480.089 14.3854 480.089C15.5326 480.089 16.4503 479.539 17.1386 478.437C17.8269 477.29 18.3316 475.432 18.6528 472.862L20.4424 458.27C21.1766 452.305 22.7138 447.946 25.054 445.193C27.3942 442.439 30.4916 441.063 34.346 441.063C37.9252 441.063 40.9307 442.164 43.3627 444.367C45.7488 446.569 47.5384 449.667 48.7314 453.659C49.9245 457.651 50.521 462.308 50.521 467.631Z" fill="white" fill-opacity="0.1"/>
<path d="M49.695 441.96L0.825958 418.145V403.553L49.695 379.738V394.398L38.1317 399.767V422.825L49.695 428.125V441.96ZM28.7708 418.42V404.035L13.353 411.193L28.7708 418.42Z" fill="white" fill-opacity="0.1"/>
<path d="M49.695 375.856H0.825958V330.429H11.0128V362.09H20.0983V333.526H29.8721V362.09H39.5083V329.947H49.695V375.856Z" fill="white" fill-opacity="0.1"/>
<path d="M50.521 283.323C50.521 287.591 50.108 291.56 49.2821 295.231C48.4102 298.902 46.9877 302.091 45.0146 304.798C42.9956 307.506 40.2883 309.593 36.8927 311.062L33.2447 298.741C34.8967 297.824 36.2503 296.745 37.3057 295.506C38.3152 294.221 39.0723 292.547 39.5771 290.482C40.0359 288.417 40.2654 285.755 40.2654 282.497C40.2654 278.505 39.8295 275.477 38.9576 273.412C38.0858 271.347 36.9615 270.315 35.585 270.315C34.5296 270.315 33.6348 270.819 32.9006 271.829C32.1664 272.838 31.6387 274.766 31.3175 277.611L29.6656 290.895C28.8855 297.043 27.3713 301.632 25.1228 304.661C22.8744 307.689 19.7541 309.203 15.762 309.203C12.2287 309.203 9.31495 308.148 7.02063 306.037C4.68042 303.926 2.93674 300.944 1.78957 297.089C0.596525 293.189 0 288.646 0 283.461C0 279.698 0.390035 276.119 1.17011 272.724C1.95018 269.282 3.28089 266.231 5.16223 263.569C7.04358 260.862 9.68205 258.728 13.0776 257.168L16.7256 268.938C14.156 270.315 12.4352 272.265 11.5634 274.789C10.6915 277.266 10.2556 280.524 10.2556 284.562C10.2556 287.958 10.6227 290.688 11.3569 292.753C12.0452 294.772 13.0547 295.782 14.3854 295.782C15.5326 295.782 16.4503 295.231 17.1386 294.13C17.8269 292.983 18.3316 291.124 18.6528 288.555L20.4424 273.963C21.1766 267.997 22.7138 263.638 25.054 260.885C27.3942 258.132 30.4916 256.755 34.346 256.755C37.9252 256.755 40.9307 257.856 43.3627 260.059C45.7488 262.262 47.5384 265.359 48.7314 269.351C49.9245 273.343 50.521 278.001 50.521 283.323Z" fill="white" fill-opacity="0.1"/>
<path d="M49.695 236.398H11.0128V255.808H0.825958V203.222H11.0128V222.632H49.695V236.398Z" fill="white" fill-opacity="0.1"/>
<path d="M50.521 172.944C50.521 178.267 49.8327 182.856 48.4561 186.71C47.0336 190.519 44.8311 193.456 41.8485 195.52C38.8658 197.585 34.9655 198.618 30.1474 198.618H0.825958V184.852H29.5279C31.6846 184.852 33.543 184.508 35.1031 183.819C36.6633 183.131 37.8563 181.915 38.6823 180.171C39.5082 178.428 39.9212 175.95 39.9212 172.738C39.9212 169.572 39.5082 167.117 38.6823 165.373C37.8563 163.583 36.6633 162.345 35.1031 161.656C33.543 160.922 31.6846 160.555 29.5279 160.555H0.825958V147.133H30.1474C34.9655 147.133 38.8658 148.166 41.8485 150.23C44.8311 152.295 47.0336 155.255 48.4561 159.11C49.8327 162.918 50.521 167.53 50.521 172.944Z" fill="white" fill-opacity="0.1"/>
<path d="M49.695 139.658H0.825958V113.296C0.825958 106.826 1.88135 101.48 3.99212 97.2585C6.1029 92.9911 9.01669 89.802 12.7335 87.6912C16.4044 85.5804 20.603 84.525 25.3293 84.525C30.0098 84.525 34.1854 85.5804 37.8563 87.6912C41.5273 89.802 44.4181 92.9911 46.5289 97.2585C48.6397 101.48 49.695 106.826 49.695 113.296V139.658ZM39.5083 125.892V114.259C39.5083 108.891 38.3152 104.922 35.9291 102.352C33.543 99.7364 30.2851 98.4286 26.1553 98.4286H24.3657C20.1442 98.4286 16.8633 99.7364 14.5231 102.352C12.1829 104.922 11.0128 108.891 11.0128 114.259V125.892H39.5083Z" fill="white" fill-opacity="0.1"/>
<path d="M49.695 78.3562H0.825958V64.5902H49.695V78.3562Z" fill="white" fill-opacity="0.1"/>
<path d="M50.521 29.1838C50.521 35.3785 49.4427 40.6554 47.286 45.0146C45.0835 49.3279 42.0779 52.6318 38.2693 54.9261C34.4607 57.2204 30.1474 58.3676 25.3293 58.3676C20.4654 58.3676 16.1291 57.2434 12.3205 54.9949C8.51194 52.7006 5.50638 49.3738 3.30383 45.0146C1.10128 40.6554 0 35.3785 0 29.1838C0 22.9432 1.10128 17.6663 3.30383 13.353C5.46049 8.99375 8.44311 5.68992 12.2517 3.44149C16.0603 1.14716 20.4195 0 25.3293 0C30.1474 0 34.4607 1.14716 38.2693 3.44149C42.0779 5.68992 45.0835 8.99375 47.286 13.353C49.4427 17.6663 50.521 22.9432 50.521 29.1838ZM40.0589 29.1838C40.0589 24.5034 38.8429 20.7866 36.4109 18.0334C33.933 15.2802 30.5145 13.9036 26.1553 13.9036H24.3657C20.0065 13.9036 16.6109 15.2802 14.1789 18.0334C11.701 20.7866 10.4621 24.5034 10.4621 29.1838C10.4621 33.8642 11.701 37.581 14.1789 40.3342C16.6109 43.0874 20.0065 44.464 24.3657 44.464H26.1553C30.5145 44.464 33.933 43.0874 36.4109 40.3342C38.8429 37.581 40.0589 33.8642 40.0589 29.1838Z" fill="white" fill-opacity="0.1"/>
</svg>
